<svg xmlns="http://www.w3.org/2000/svg" viewBox="0 0 133.81 83.48"><defs><style>.cls-1{fill:#999;}.cls-2{fill:#ee8035;}</style></defs><g id="Layer_2" data-name="Layer 2"><g id="Layer_1-2" data-name="Layer 1"><polygon class="cls-1" points="127.69 22.13 16.2 22.13 22.66 0 133.81 0 127.69 22.13"/><polygon class="cls-1" points="119.69 52.8 8.2 52.8 14.66 30.68 125.81 30.68 119.69 52.8"/><polygon class="cls-1" points="111.49 83.48 0 83.48 6.47 61.35 117.62 61.35 111.49 83.48"/><polygon class="cls-2" points="127.69 22.13 16.2 22.13 22.66 0 133.81 0 127.69 22.13"/><polygon class="cls-2" points="119.69 52.8 8.2 52.8 14.66 30.68 125.81 30.68 119.69 52.8"/><polygon class="cls-2" points="111.49 83.48 0 83.48 6.47 61.35 117.62 61.35 111.49 83.48"/></g></g></svg>